<mxfile host="app.diagrams.net" modified="2020-11-08T18:39:02.971Z" agent="5.0 (Macintosh; Intel Mac OS X 10_15_7) AppleWebKit/537.36 (KHTML, like Gecko) Chrome/86.0.4240.183 Safari/537.36" etag="yUUbBTQ4W49mGTPT56Kz" version="13.9.2" type="github" pages="9">
  <diagram id="dKoDja1B_UEmTesHISM4" name="System allow user to exec commands">
    <mxGraphModel dx="388" dy="511" grid="1" gridSize="10" guides="1" tooltips="1" connect="1" arrows="1" fold="1" page="1" pageScale="1" pageWidth="1100" pageHeight="850" math="0" shadow="0">
      <root>
        <mxCell id="0" />
        <mxCell id="1" parent="0" />
        <mxCell id="QYQSUx4oeR0v3a4fiVO8-1" value=":Object" style="shape=umlLifeline;perimeter=lifelinePerimeter;whiteSpace=wrap;html=1;container=1;collapsible=0;recursiveResize=0;outlineConnect=0;" vertex="1" parent="1">
          <mxGeometry x="480" y="170" width="100" height="300" as="geometry" />
        </mxCell>
        <mxCell id="QYQSUx4oeR0v3a4fiVO8-2" value=":System" style="shape=umlLifeline;perimeter=lifelinePerimeter;whiteSpace=wrap;html=1;container=1;collapsible=0;recursiveResize=0;outlineConnect=0;" vertex="1" parent="1">
          <mxGeometry x="480" y="170" width="100" height="360" as="geometry" />
        </mxCell>
        <mxCell id="QYQSUx4oeR0v3a4fiVO8-8" value="" style="html=1;points=[];perimeter=orthogonalPerimeter;" vertex="1" parent="QYQSUx4oeR0v3a4fiVO8-2">
          <mxGeometry x="45" y="80" width="10" height="280" as="geometry" />
        </mxCell>
        <mxCell id="pkoRWsCSGCzOWfnOxzU1-3" value="ValidateUserPermermissions" style="edgeStyle=orthogonalEdgeStyle;html=1;align=left;spacingLeft=2;endArrow=block;rounded=0;dashed=1;exitX=1.037;exitY=0.108;exitDx=0;exitDy=0;exitPerimeter=0;entryX=1.037;entryY=0.178;entryDx=0;entryDy=0;entryPerimeter=0;" edge="1" target="QYQSUx4oeR0v3a4fiVO8-8" parent="QYQSUx4oeR0v3a4fiVO8-2" source="QYQSUx4oeR0v3a4fiVO8-8">
          <mxGeometry relative="1" as="geometry">
            <mxPoint x="60" y="110" as="sourcePoint" />
            <Array as="points">
              <mxPoint x="80" y="110" />
              <mxPoint x="80" y="130" />
            </Array>
            <mxPoint x="60" y="130" as="targetPoint" />
          </mxGeometry>
        </mxCell>
        <mxCell id="QYQSUx4oeR0v3a4fiVO8-4" value="User" style="shape=umlLifeline;participant=umlActor;perimeter=lifelinePerimeter;whiteSpace=wrap;html=1;container=1;collapsible=0;recursiveResize=0;verticalAlign=top;spacingTop=36;outlineConnect=0;" vertex="1" parent="1">
          <mxGeometry x="360" y="170" width="20" height="360" as="geometry" />
        </mxCell>
        <mxCell id="QYQSUx4oeR0v3a4fiVO8-5" value="" style="html=1;points=[];perimeter=orthogonalPerimeter;" vertex="1" parent="QYQSUx4oeR0v3a4fiVO8-4">
          <mxGeometry x="5" y="70" width="10" height="290" as="geometry" />
        </mxCell>
        <mxCell id="QYQSUx4oeR0v3a4fiVO8-9" value="requestForCommands" style="html=1;verticalAlign=bottom;endArrow=block;entryX=0;entryY=0;exitX=1;exitY=0.041;exitDx=0;exitDy=0;exitPerimeter=0;" edge="1" target="QYQSUx4oeR0v3a4fiVO8-8" parent="1" source="QYQSUx4oeR0v3a4fiVO8-5">
          <mxGeometry relative="1" as="geometry">
            <mxPoint x="370" y="280" as="sourcePoint" />
          </mxGeometry>
        </mxCell>
        <mxCell id="pkoRWsCSGCzOWfnOxzU1-1" value="grant/denyPermissions" style="html=1;verticalAlign=bottom;endArrow=open;dashed=1;endSize=8;entryX=1.024;entryY=0.275;entryDx=0;entryDy=0;entryPerimeter=0;exitX=-0.024;exitY=0.249;exitDx=0;exitDy=0;exitPerimeter=0;" edge="1" parent="1" source="QYQSUx4oeR0v3a4fiVO8-8" target="QYQSUx4oeR0v3a4fiVO8-5">
          <mxGeometry relative="1" as="geometry">
            <mxPoint x="520" y="320" as="sourcePoint" />
            <mxPoint x="380" y="320" as="targetPoint" />
          </mxGeometry>
        </mxCell>
      </root>
    </mxGraphModel>
  </diagram>
  <diagram id="YMyZ9CHNg9fs51lb3wJV" name="System saves info">
    <mxGraphModel dx="388" dy="511" grid="1" gridSize="10" guides="1" tooltips="1" connect="1" arrows="1" fold="1" page="1" pageScale="1" pageWidth="1100" pageHeight="850" math="0" shadow="0">
      <root>
        <mxCell id="9CF9L6OPMk2xWek13vaq-0" />
        <mxCell id="9CF9L6OPMk2xWek13vaq-1" parent="9CF9L6OPMk2xWek13vaq-0" />
        <mxCell id="9CF9L6OPMk2xWek13vaq-2" value=":System" style="shape=umlLifeline;perimeter=lifelinePerimeter;whiteSpace=wrap;html=1;container=1;collapsible=0;recursiveResize=0;outlineConnect=0;" vertex="1" parent="9CF9L6OPMk2xWek13vaq-1">
          <mxGeometry x="170" y="170" width="100" height="170" as="geometry" />
        </mxCell>
        <mxCell id="9CF9L6OPMk2xWek13vaq-3" value="" style="html=1;points=[];perimeter=orthogonalPerimeter;" vertex="1" parent="9CF9L6OPMk2xWek13vaq-2">
          <mxGeometry x="45" y="70" width="10" height="90" as="geometry" />
        </mxCell>
        <mxCell id="9CF9L6OPMk2xWek13vaq-7" value="save user&#39;s profiles" style="edgeStyle=orthogonalEdgeStyle;html=1;align=left;spacingLeft=2;endArrow=block;rounded=0;exitX=1.015;exitY=0.121;exitDx=0;exitDy=0;exitPerimeter=0;entryX=1.065;entryY=0.667;entryDx=0;entryDy=0;entryPerimeter=0;" edge="1" target="9CF9L6OPMk2xWek13vaq-3" parent="9CF9L6OPMk2xWek13vaq-2" source="9CF9L6OPMk2xWek13vaq-3">
          <mxGeometry relative="1" as="geometry">
            <mxPoint x="60" y="80" as="sourcePoint" />
            <Array as="points">
              <mxPoint x="55" y="80" />
              <mxPoint x="85" y="80" />
              <mxPoint x="85" y="130" />
            </Array>
            <mxPoint x="60" y="130" as="targetPoint" />
          </mxGeometry>
        </mxCell>
      </root>
    </mxGraphModel>
  </diagram>
  <diagram id="JXjnFcr72ctbYhdSmyfW" name="changeTimeSpeed">
    <mxGraphModel dx="548" dy="721" grid="1" gridSize="10" guides="1" tooltips="1" connect="1" arrows="1" fold="1" page="1" pageScale="1" pageWidth="1100" pageHeight="850" math="0" shadow="0">
      <root>
        <mxCell id="pFixgrVIrIQQ6HGTLFYr-0" />
        <mxCell id="pFixgrVIrIQQ6HGTLFYr-1" parent="pFixgrVIrIQQ6HGTLFYr-0" />
        <mxCell id="nhhykT5l2XmMVsNhFF4G-0" value=":System" style="shape=umlLifeline;perimeter=lifelinePerimeter;whiteSpace=wrap;html=1;container=1;collapsible=0;recursiveResize=0;outlineConnect=0;" vertex="1" parent="pFixgrVIrIQQ6HGTLFYr-1">
          <mxGeometry x="250" y="170" width="100" height="300" as="geometry" />
        </mxCell>
        <mxCell id="nhhykT5l2XmMVsNhFF4G-4" value="" style="html=1;points=[];perimeter=orthogonalPerimeter;" vertex="1" parent="nhhykT5l2XmMVsNhFF4G-0">
          <mxGeometry x="45" y="100" width="10" height="200" as="geometry" />
        </mxCell>
        <mxCell id="nhhykT5l2XmMVsNhFF4G-8" value="ChangeTimeSpeed" style="edgeStyle=orthogonalEdgeStyle;html=1;align=left;spacingLeft=2;endArrow=block;rounded=0;exitX=1.016;exitY=0.1;exitDx=0;exitDy=0;exitPerimeter=0;entryX=1.055;entryY=0.25;entryDx=0;entryDy=0;entryPerimeter=0;" edge="1" target="nhhykT5l2XmMVsNhFF4G-4" parent="nhhykT5l2XmMVsNhFF4G-0" source="nhhykT5l2XmMVsNhFF4G-4">
          <mxGeometry relative="1" as="geometry">
            <mxPoint x="60" y="120" as="sourcePoint" />
            <Array as="points">
              <mxPoint x="85" y="120" />
              <mxPoint x="85" y="150" />
            </Array>
            <mxPoint x="60" y="140" as="targetPoint" />
          </mxGeometry>
        </mxCell>
        <mxCell id="nhhykT5l2XmMVsNhFF4G-3" value=":User" style="shape=umlLifeline;participant=umlActor;perimeter=lifelinePerimeter;whiteSpace=wrap;html=1;container=1;collapsible=0;recursiveResize=0;verticalAlign=top;spacingTop=36;outlineConnect=0;size=30;" vertex="1" parent="pFixgrVIrIQQ6HGTLFYr-1">
          <mxGeometry x="110" y="170" width="20" height="300" as="geometry" />
        </mxCell>
        <mxCell id="nhhykT5l2XmMVsNhFF4G-1" value="" style="html=1;points=[];perimeter=orthogonalPerimeter;" vertex="1" parent="nhhykT5l2XmMVsNhFF4G-3">
          <mxGeometry x="5" y="70" width="10" height="230" as="geometry" />
        </mxCell>
        <mxCell id="nhhykT5l2XmMVsNhFF4G-5" value="ChangeTimeSpeedRequest" style="html=1;verticalAlign=bottom;endArrow=block;entryX=0;entryY=0;exitX=1.035;exitY=0.139;exitDx=0;exitDy=0;exitPerimeter=0;" edge="1" target="nhhykT5l2XmMVsNhFF4G-4" parent="pFixgrVIrIQQ6HGTLFYr-1" source="nhhykT5l2XmMVsNhFF4G-1">
          <mxGeometry relative="1" as="geometry">
            <mxPoint x="140" y="240" as="sourcePoint" />
          </mxGeometry>
        </mxCell>
      </root>
    </mxGraphModel>
  </diagram>
  <diagram id="galMJGxfoDtk6gfx-DKs" name="open/closeDoor">
    <mxGraphModel dx="388" dy="511" grid="1" gridSize="10" guides="1" tooltips="1" connect="1" arrows="1" fold="1" page="1" pageScale="1" pageWidth="1100" pageHeight="850" math="0" shadow="0">
      <root>
        <mxCell id="zsbwd5jkUp4TNfpL6Wq_-0" />
        <mxCell id="zsbwd5jkUp4TNfpL6Wq_-1" parent="zsbwd5jkUp4TNfpL6Wq_-0" />
        <mxCell id="zsbwd5jkUp4TNfpL6Wq_-2" value=":System" style="shape=umlLifeline;perimeter=lifelinePerimeter;whiteSpace=wrap;html=1;container=1;collapsible=0;recursiveResize=0;outlineConnect=0;" vertex="1" parent="zsbwd5jkUp4TNfpL6Wq_-1">
          <mxGeometry x="580" y="140" width="100" height="300" as="geometry" />
        </mxCell>
        <mxCell id="J9KFyikQ2tKHsAEL4q7p-0" value="" style="html=1;points=[];perimeter=orthogonalPerimeter;" vertex="1" parent="zsbwd5jkUp4TNfpL6Wq_-2">
          <mxGeometry x="45" y="55" width="10" height="245" as="geometry" />
        </mxCell>
        <mxCell id="zsbwd5jkUp4TNfpL6Wq_-3" value=":User" style="shape=umlLifeline;participant=umlActor;perimeter=lifelinePerimeter;whiteSpace=wrap;html=1;container=1;collapsible=0;recursiveResize=0;verticalAlign=top;spacingTop=36;outlineConnect=0;" vertex="1" parent="zsbwd5jkUp4TNfpL6Wq_-1">
          <mxGeometry x="320" y="140" width="20" height="300" as="geometry" />
        </mxCell>
        <mxCell id="zsbwd5jkUp4TNfpL6Wq_-9" value="" style="html=1;points=[];perimeter=orthogonalPerimeter;" vertex="1" parent="zsbwd5jkUp4TNfpL6Wq_-3">
          <mxGeometry x="5" y="60" width="10" height="240" as="geometry" />
        </mxCell>
        <mxCell id="zsbwd5jkUp4TNfpL6Wq_-4" value=":Module" style="shape=umlLifeline;perimeter=lifelinePerimeter;whiteSpace=wrap;html=1;container=1;collapsible=0;recursiveResize=0;outlineConnect=0;" vertex="1" parent="zsbwd5jkUp4TNfpL6Wq_-1">
          <mxGeometry x="420" y="140" width="100" height="300" as="geometry" />
        </mxCell>
        <mxCell id="J9KFyikQ2tKHsAEL4q7p-4" value="" style="html=1;points=[];perimeter=orthogonalPerimeter;" vertex="1" parent="zsbwd5jkUp4TNfpL6Wq_-4">
          <mxGeometry x="45" y="140" width="10" height="160" as="geometry" />
        </mxCell>
        <mxCell id="J9KFyikQ2tKHsAEL4q7p-1" value="requestToClose/openDoor" style="html=1;verticalAlign=bottom;endArrow=block;entryX=0.021;entryY=0.064;entryDx=0;entryDy=0;entryPerimeter=0;" edge="1" target="J9KFyikQ2tKHsAEL4q7p-0" parent="zsbwd5jkUp4TNfpL6Wq_-1">
          <mxGeometry relative="1" as="geometry">
            <mxPoint x="337" y="211" as="sourcePoint" />
          </mxGeometry>
        </mxCell>
        <mxCell id="J9KFyikQ2tKHsAEL4q7p-2" value="Approval" style="html=1;verticalAlign=bottom;endArrow=open;dashed=1;endSize=8;entryX=0.961;entryY=0.2;entryDx=0;entryDy=0;entryPerimeter=0;exitX=-0.043;exitY=0.216;exitDx=0;exitDy=0;exitPerimeter=0;" edge="1" source="J9KFyikQ2tKHsAEL4q7p-0" parent="zsbwd5jkUp4TNfpL6Wq_-1" target="zsbwd5jkUp4TNfpL6Wq_-9">
          <mxGeometry x="-0.0441" relative="1" as="geometry">
            <mxPoint x="550" y="266" as="targetPoint" />
            <mxPoint x="620" y="248" as="sourcePoint" />
            <mxPoint as="offset" />
          </mxGeometry>
        </mxCell>
        <mxCell id="J9KFyikQ2tKHsAEL4q7p-6" value="requestToClose/openDoor" style="html=1;verticalAlign=bottom;endArrow=block;exitX=1.049;exitY=0.001;exitDx=0;exitDy=0;exitPerimeter=0;entryX=-0.122;entryY=0.346;entryDx=0;entryDy=0;entryPerimeter=0;" edge="1" target="J9KFyikQ2tKHsAEL4q7p-0" parent="zsbwd5jkUp4TNfpL6Wq_-1" source="J9KFyikQ2tKHsAEL4q7p-4">
          <mxGeometry relative="1" as="geometry">
            <mxPoint x="500" y="300" as="sourcePoint" />
            <mxPoint x="570.0000000000001" y="300" as="targetPoint" />
            <Array as="points">
              <mxPoint x="600" y="280" />
            </Array>
          </mxGeometry>
        </mxCell>
        <mxCell id="J9KFyikQ2tKHsAEL4q7p-7" value="Approval" style="html=1;verticalAlign=bottom;endArrow=open;dashed=1;endSize=8;entryX=1.156;entryY=0.243;entryDx=0;entryDy=0;entryPerimeter=0;exitX=-0.063;exitY=0.51;exitDx=0;exitDy=0;exitPerimeter=0;" edge="1" source="J9KFyikQ2tKHsAEL4q7p-0" parent="zsbwd5jkUp4TNfpL6Wq_-1" target="J9KFyikQ2tKHsAEL4q7p-4">
          <mxGeometry relative="1" as="geometry">
            <mxPoint x="500" y="376" as="targetPoint" />
            <mxPoint x="620" y="319" as="sourcePoint" />
            <Array as="points" />
          </mxGeometry>
        </mxCell>
      </root>
    </mxGraphModel>
  </diagram>
  <diagram id="GVV2UlNxqgi07MumkGhg" name="open/closeWindow">
    <mxGraphModel dx="466" dy="613" grid="1" gridSize="10" guides="1" tooltips="1" connect="1" arrows="1" fold="1" page="1" pageScale="1" pageWidth="1100" pageHeight="850" math="0" shadow="0">
      <root>
        <mxCell id="7BXpPtlZXpeAcPBAsxNW-0" />
        <mxCell id="7BXpPtlZXpeAcPBAsxNW-1" parent="7BXpPtlZXpeAcPBAsxNW-0" />
        <mxCell id="YASzQvFkrU314z59Mwpk-0" value=":System" style="shape=umlLifeline;perimeter=lifelinePerimeter;whiteSpace=wrap;html=1;container=1;collapsible=0;recursiveResize=0;outlineConnect=0;" vertex="1" parent="7BXpPtlZXpeAcPBAsxNW-1">
          <mxGeometry x="580" y="140" width="100" height="300" as="geometry" />
        </mxCell>
        <mxCell id="YASzQvFkrU314z59Mwpk-1" value="" style="html=1;points=[];perimeter=orthogonalPerimeter;" vertex="1" parent="YASzQvFkrU314z59Mwpk-0">
          <mxGeometry x="45" y="55" width="10" height="245" as="geometry" />
        </mxCell>
        <mxCell id="YASzQvFkrU314z59Mwpk-2" value=":User" style="shape=umlLifeline;participant=umlActor;perimeter=lifelinePerimeter;whiteSpace=wrap;html=1;container=1;collapsible=0;recursiveResize=0;verticalAlign=top;spacingTop=36;outlineConnect=0;" vertex="1" parent="7BXpPtlZXpeAcPBAsxNW-1">
          <mxGeometry x="320" y="140" width="20" height="300" as="geometry" />
        </mxCell>
        <mxCell id="YASzQvFkrU314z59Mwpk-3" value="" style="html=1;points=[];perimeter=orthogonalPerimeter;" vertex="1" parent="YASzQvFkrU314z59Mwpk-2">
          <mxGeometry x="5" y="60" width="10" height="240" as="geometry" />
        </mxCell>
        <mxCell id="YASzQvFkrU314z59Mwpk-4" value=":Module" style="shape=umlLifeline;perimeter=lifelinePerimeter;whiteSpace=wrap;html=1;container=1;collapsible=0;recursiveResize=0;outlineConnect=0;" vertex="1" parent="7BXpPtlZXpeAcPBAsxNW-1">
          <mxGeometry x="420" y="140" width="100" height="300" as="geometry" />
        </mxCell>
        <mxCell id="YASzQvFkrU314z59Mwpk-5" value="" style="html=1;points=[];perimeter=orthogonalPerimeter;" vertex="1" parent="YASzQvFkrU314z59Mwpk-4">
          <mxGeometry x="45" y="140" width="10" height="160" as="geometry" />
        </mxCell>
        <mxCell id="YASzQvFkrU314z59Mwpk-6" value="requestToClose/openWindow" style="html=1;verticalAlign=bottom;endArrow=block;entryX=0.021;entryY=0.064;entryDx=0;entryDy=0;entryPerimeter=0;" edge="1" parent="7BXpPtlZXpeAcPBAsxNW-1" target="YASzQvFkrU314z59Mwpk-1">
          <mxGeometry relative="1" as="geometry">
            <mxPoint x="337" y="211" as="sourcePoint" />
          </mxGeometry>
        </mxCell>
        <mxCell id="YASzQvFkrU314z59Mwpk-7" value="Approval" style="html=1;verticalAlign=bottom;endArrow=open;dashed=1;endSize=8;entryX=0.961;entryY=0.2;entryDx=0;entryDy=0;entryPerimeter=0;exitX=-0.043;exitY=0.216;exitDx=0;exitDy=0;exitPerimeter=0;" edge="1" parent="7BXpPtlZXpeAcPBAsxNW-1" source="YASzQvFkrU314z59Mwpk-1" target="YASzQvFkrU314z59Mwpk-3">
          <mxGeometry x="-0.0441" relative="1" as="geometry">
            <mxPoint x="550" y="266" as="targetPoint" />
            <mxPoint x="620" y="248" as="sourcePoint" />
            <mxPoint as="offset" />
          </mxGeometry>
        </mxCell>
        <mxCell id="YASzQvFkrU314z59Mwpk-8" value="requestToClose/openWindow" style="html=1;verticalAlign=bottom;endArrow=block;exitX=1.049;exitY=0.001;exitDx=0;exitDy=0;exitPerimeter=0;entryX=-0.122;entryY=0.346;entryDx=0;entryDy=0;entryPerimeter=0;" edge="1" parent="7BXpPtlZXpeAcPBAsxNW-1" source="YASzQvFkrU314z59Mwpk-5" target="YASzQvFkrU314z59Mwpk-1">
          <mxGeometry relative="1" as="geometry">
            <mxPoint x="500" y="300" as="sourcePoint" />
            <mxPoint x="570.0000000000001" y="300" as="targetPoint" />
            <Array as="points">
              <mxPoint x="600" y="280" />
            </Array>
          </mxGeometry>
        </mxCell>
        <mxCell id="YASzQvFkrU314z59Mwpk-9" value="Approval" style="html=1;verticalAlign=bottom;endArrow=open;dashed=1;endSize=8;entryX=1.156;entryY=0.243;entryDx=0;entryDy=0;entryPerimeter=0;exitX=-0.063;exitY=0.51;exitDx=0;exitDy=0;exitPerimeter=0;" edge="1" parent="7BXpPtlZXpeAcPBAsxNW-1" source="YASzQvFkrU314z59Mwpk-1" target="YASzQvFkrU314z59Mwpk-5">
          <mxGeometry relative="1" as="geometry">
            <mxPoint x="500" y="376" as="targetPoint" />
            <mxPoint x="620" y="319" as="sourcePoint" />
            <Array as="points" />
          </mxGeometry>
        </mxCell>
      </root>
    </mxGraphModel>
  </diagram>
  <diagram id="otXIN4ID3LJ8aJdtdF_A" name="open/closeLight">
    <mxGraphModel dx="466" dy="613" grid="1" gridSize="10" guides="1" tooltips="1" connect="1" arrows="1" fold="1" page="1" pageScale="1" pageWidth="1100" pageHeight="850" math="0" shadow="0">
      <root>
        <mxCell id="hplyd4Q_X77aigeOMJJK-0" />
        <mxCell id="hplyd4Q_X77aigeOMJJK-1" parent="hplyd4Q_X77aigeOMJJK-0" />
        <mxCell id="hplyd4Q_X77aigeOMJJK-2" value=":System" style="shape=umlLifeline;perimeter=lifelinePerimeter;whiteSpace=wrap;html=1;container=1;collapsible=0;recursiveResize=0;outlineConnect=0;" vertex="1" parent="hplyd4Q_X77aigeOMJJK-1">
          <mxGeometry x="580" y="140" width="100" height="300" as="geometry" />
        </mxCell>
        <mxCell id="hplyd4Q_X77aigeOMJJK-3" value="" style="html=1;points=[];perimeter=orthogonalPerimeter;" vertex="1" parent="hplyd4Q_X77aigeOMJJK-2">
          <mxGeometry x="45" y="55" width="10" height="245" as="geometry" />
        </mxCell>
        <mxCell id="hplyd4Q_X77aigeOMJJK-4" value=":User" style="shape=umlLifeline;participant=umlActor;perimeter=lifelinePerimeter;whiteSpace=wrap;html=1;container=1;collapsible=0;recursiveResize=0;verticalAlign=top;spacingTop=36;outlineConnect=0;" vertex="1" parent="hplyd4Q_X77aigeOMJJK-1">
          <mxGeometry x="320" y="140" width="20" height="300" as="geometry" />
        </mxCell>
        <mxCell id="hplyd4Q_X77aigeOMJJK-5" value="" style="html=1;points=[];perimeter=orthogonalPerimeter;" vertex="1" parent="hplyd4Q_X77aigeOMJJK-4">
          <mxGeometry x="5" y="60" width="10" height="240" as="geometry" />
        </mxCell>
        <mxCell id="hplyd4Q_X77aigeOMJJK-6" value=":Module" style="shape=umlLifeline;perimeter=lifelinePerimeter;whiteSpace=wrap;html=1;container=1;collapsible=0;recursiveResize=0;outlineConnect=0;" vertex="1" parent="hplyd4Q_X77aigeOMJJK-1">
          <mxGeometry x="420" y="140" width="100" height="300" as="geometry" />
        </mxCell>
        <mxCell id="hplyd4Q_X77aigeOMJJK-7" value="" style="html=1;points=[];perimeter=orthogonalPerimeter;" vertex="1" parent="hplyd4Q_X77aigeOMJJK-6">
          <mxGeometry x="45" y="140" width="10" height="160" as="geometry" />
        </mxCell>
        <mxCell id="hplyd4Q_X77aigeOMJJK-8" value="requestToClose/openLight" style="html=1;verticalAlign=bottom;endArrow=block;entryX=0.021;entryY=0.064;entryDx=0;entryDy=0;entryPerimeter=0;" edge="1" parent="hplyd4Q_X77aigeOMJJK-1" target="hplyd4Q_X77aigeOMJJK-3">
          <mxGeometry relative="1" as="geometry">
            <mxPoint x="337" y="211" as="sourcePoint" />
          </mxGeometry>
        </mxCell>
        <mxCell id="hplyd4Q_X77aigeOMJJK-9" value="Approval" style="html=1;verticalAlign=bottom;endArrow=open;dashed=1;endSize=8;entryX=0.961;entryY=0.2;entryDx=0;entryDy=0;entryPerimeter=0;exitX=-0.043;exitY=0.216;exitDx=0;exitDy=0;exitPerimeter=0;" edge="1" parent="hplyd4Q_X77aigeOMJJK-1" source="hplyd4Q_X77aigeOMJJK-3" target="hplyd4Q_X77aigeOMJJK-5">
          <mxGeometry x="-0.0441" relative="1" as="geometry">
            <mxPoint x="550" y="266" as="targetPoint" />
            <mxPoint x="620" y="248" as="sourcePoint" />
            <mxPoint as="offset" />
          </mxGeometry>
        </mxCell>
        <mxCell id="hplyd4Q_X77aigeOMJJK-10" value="requestToClose/openLight" style="html=1;verticalAlign=bottom;endArrow=block;exitX=1.049;exitY=0.001;exitDx=0;exitDy=0;exitPerimeter=0;entryX=-0.122;entryY=0.346;entryDx=0;entryDy=0;entryPerimeter=0;" edge="1" parent="hplyd4Q_X77aigeOMJJK-1" source="hplyd4Q_X77aigeOMJJK-7" target="hplyd4Q_X77aigeOMJJK-3">
          <mxGeometry relative="1" as="geometry">
            <mxPoint x="500" y="300" as="sourcePoint" />
            <mxPoint x="570.0000000000001" y="300" as="targetPoint" />
            <Array as="points" />
          </mxGeometry>
        </mxCell>
        <mxCell id="hplyd4Q_X77aigeOMJJK-11" value="Approval" style="html=1;verticalAlign=bottom;endArrow=open;dashed=1;endSize=8;entryX=1.156;entryY=0.243;entryDx=0;entryDy=0;entryPerimeter=0;exitX=-0.063;exitY=0.51;exitDx=0;exitDy=0;exitPerimeter=0;" edge="1" parent="hplyd4Q_X77aigeOMJJK-1" source="hplyd4Q_X77aigeOMJJK-3" target="hplyd4Q_X77aigeOMJJK-7">
          <mxGeometry relative="1" as="geometry">
            <mxPoint x="500" y="376" as="targetPoint" />
            <mxPoint x="620" y="319" as="sourcePoint" />
            <Array as="points" />
          </mxGeometry>
        </mxCell>
      </root>
    </mxGraphModel>
  </diagram>
  <diagram id="IA003JzgRbc3wy2XwILH" name="LightAutoMode">
    <mxGraphModel dx="666" dy="876" grid="1" gridSize="10" guides="1" tooltips="1" connect="1" arrows="1" fold="1" page="1" pageScale="1" pageWidth="1100" pageHeight="850" math="0" shadow="0">
      <root>
        <mxCell id="t28-lkgBnYCcv6FNN6bq-0" />
        <mxCell id="t28-lkgBnYCcv6FNN6bq-1" parent="t28-lkgBnYCcv6FNN6bq-0" />
        <mxCell id="t28-lkgBnYCcv6FNN6bq-2" value=":System" style="shape=umlLifeline;perimeter=lifelinePerimeter;whiteSpace=wrap;html=1;container=1;collapsible=0;recursiveResize=0;outlineConnect=0;" vertex="1" parent="t28-lkgBnYCcv6FNN6bq-1">
          <mxGeometry x="280" y="150" width="100" height="300" as="geometry" />
        </mxCell>
        <mxCell id="t28-lkgBnYCcv6FNN6bq-5" value="" style="html=1;points=[];perimeter=orthogonalPerimeter;" vertex="1" parent="t28-lkgBnYCcv6FNN6bq-2">
          <mxGeometry x="45" y="60" width="10" height="240" as="geometry" />
        </mxCell>
        <mxCell id="t28-lkgBnYCcv6FNN6bq-3" value=":User" style="shape=umlLifeline;participant=umlActor;perimeter=lifelinePerimeter;whiteSpace=wrap;html=1;container=1;collapsible=0;recursiveResize=0;verticalAlign=top;spacingTop=36;outlineConnect=0;" vertex="1" parent="t28-lkgBnYCcv6FNN6bq-1">
          <mxGeometry x="130" y="150" width="20" height="300" as="geometry" />
        </mxCell>
        <mxCell id="t28-lkgBnYCcv6FNN6bq-4" value="" style="html=1;points=[];perimeter=orthogonalPerimeter;" vertex="1" parent="t28-lkgBnYCcv6FNN6bq-3">
          <mxGeometry x="5" y="60" width="10" height="240" as="geometry" />
        </mxCell>
        <mxCell id="t28-lkgBnYCcv6FNN6bq-6" value="SetAutoMode" style="html=1;verticalAlign=bottom;endArrow=block;exitX=1.009;exitY=0.082;exitDx=0;exitDy=0;exitPerimeter=0;entryX=-0.2;entryY=0.088;entryDx=0;entryDy=0;entryPerimeter=0;" edge="1" target="t28-lkgBnYCcv6FNN6bq-5" parent="t28-lkgBnYCcv6FNN6bq-1" source="t28-lkgBnYCcv6FNN6bq-4">
          <mxGeometry relative="1" as="geometry">
            <mxPoint x="150" y="230" as="sourcePoint" />
            <mxPoint x="324" y="226" as="targetPoint" />
          </mxGeometry>
        </mxCell>
        <mxCell id="t28-lkgBnYCcv6FNN6bq-7" value="Confirmation" style="html=1;verticalAlign=bottom;endArrow=open;dashed=1;endSize=8;exitX=-0.1;exitY=0.286;exitDx=0;exitDy=0;exitPerimeter=0;entryX=1.043;entryY=0.298;entryDx=0;entryDy=0;entryPerimeter=0;" edge="1" source="t28-lkgBnYCcv6FNN6bq-5" parent="t28-lkgBnYCcv6FNN6bq-1" target="t28-lkgBnYCcv6FNN6bq-4">
          <mxGeometry relative="1" as="geometry">
            <mxPoint x="200" y="366" as="targetPoint" />
            <Array as="points" />
          </mxGeometry>
        </mxCell>
        <mxCell id="t28-lkgBnYCcv6FNN6bq-12" value="AutoModeActivated" style="edgeStyle=orthogonalEdgeStyle;html=1;align=left;spacingLeft=2;endArrow=block;rounded=0;entryX=1;entryY=0;" edge="1" parent="t28-lkgBnYCcv6FNN6bq-1">
          <mxGeometry relative="1" as="geometry">
            <mxPoint x="335" y="250" as="sourcePoint" />
            <Array as="points">
              <mxPoint x="360" y="250" />
              <mxPoint x="360" y="270" />
            </Array>
            <mxPoint x="335" y="270" as="targetPoint" />
          </mxGeometry>
        </mxCell>
      </root>
    </mxGraphModel>
  </diagram>
  <diagram id="REqfOBZ-VTxiLF9JtUkI" name="SHP seq diagram">
    <mxGraphModel dx="932" dy="1226" grid="1" gridSize="10" guides="1" tooltips="1" connect="1" arrows="1" fold="1" page="1" pageScale="1" pageWidth="1100" pageHeight="850" math="0" shadow="0">
      <root>
        <mxCell id="wPgzjCjFjOfra0olnBy9-0" />
        <mxCell id="wPgzjCjFjOfra0olnBy9-1" parent="wPgzjCjFjOfra0olnBy9-0" />
        <mxCell id="wPgzjCjFjOfra0olnBy9-2" value=":System" style="shape=umlLifeline;perimeter=lifelinePerimeter;whiteSpace=wrap;html=1;container=1;collapsible=0;recursiveResize=0;outlineConnect=0;" vertex="1" parent="wPgzjCjFjOfra0olnBy9-1">
          <mxGeometry x="280" y="150" width="100" height="530" as="geometry" />
        </mxCell>
        <mxCell id="wPgzjCjFjOfra0olnBy9-5" value="" style="html=1;points=[];perimeter=orthogonalPerimeter;" vertex="1" parent="wPgzjCjFjOfra0olnBy9-2">
          <mxGeometry x="45" y="60" width="10" height="470" as="geometry" />
        </mxCell>
        <mxCell id="wPgzjCjFjOfra0olnBy9-3" value=":User" style="shape=umlLifeline;participant=umlActor;perimeter=lifelinePerimeter;whiteSpace=wrap;html=1;container=1;collapsible=0;recursiveResize=0;verticalAlign=top;spacingTop=36;outlineConnect=0;" vertex="1" parent="wPgzjCjFjOfra0olnBy9-1">
          <mxGeometry x="80" y="150" width="20" height="530" as="geometry" />
        </mxCell>
        <mxCell id="wPgzjCjFjOfra0olnBy9-4" value="" style="html=1;points=[];perimeter=orthogonalPerimeter;" vertex="1" parent="wPgzjCjFjOfra0olnBy9-3">
          <mxGeometry x="5" y="60" width="10" height="470" as="geometry" />
        </mxCell>
        <mxCell id="wPgzjCjFjOfra0olnBy9-7" value="setAwayModeOn" style="html=1;verticalAlign=bottom;endArrow=block;entryX=-0.2;entryY=0.128;entryDx=0;entryDy=0;entryPerimeter=0;" edge="1" target="wPgzjCjFjOfra0olnBy9-5" parent="wPgzjCjFjOfra0olnBy9-1" source="wPgzjCjFjOfra0olnBy9-3">
          <mxGeometry relative="1" as="geometry">
            <mxPoint x="160" y="240" as="sourcePoint" />
            <mxPoint x="230" y="240.0000000000001" as="targetPoint" />
          </mxGeometry>
        </mxCell>
        <mxCell id="wPgzjCjFjOfra0olnBy9-12" value="ConfirmationMessage" style="html=1;verticalAlign=bottom;endArrow=open;dashed=1;endSize=8;" edge="1" source="wPgzjCjFjOfra0olnBy9-2" parent="wPgzjCjFjOfra0olnBy9-1" target="wPgzjCjFjOfra0olnBy9-4">
          <mxGeometry relative="1" as="geometry">
            <mxPoint x="170" y="320" as="targetPoint" />
            <mxPoint x="270" y="320" as="sourcePoint" />
            <Array as="points">
              <mxPoint x="250" y="310" />
            </Array>
          </mxGeometry>
        </mxCell>
        <mxCell id="wPgzjCjFjOfra0olnBy9-14" value="turnAutoModeOn" style="edgeStyle=orthogonalEdgeStyle;html=1;align=left;spacingLeft=2;endArrow=block;rounded=0;entryX=1;entryY=0;" edge="1" parent="wPgzjCjFjOfra0olnBy9-1">
          <mxGeometry relative="1" as="geometry">
            <mxPoint x="330" y="270" as="sourcePoint" />
            <Array as="points">
              <mxPoint x="355" y="270" />
            </Array>
            <mxPoint x="335" y="290" as="targetPoint" />
          </mxGeometry>
        </mxCell>
        <mxCell id="wPgzjCjFjOfra0olnBy9-19" value="ListenToTriggers" style="edgeStyle=orthogonalEdgeStyle;html=1;align=left;spacingLeft=2;endArrow=block;rounded=0;entryX=1;entryY=0;" edge="1" parent="wPgzjCjFjOfra0olnBy9-1">
          <mxGeometry relative="1" as="geometry">
            <mxPoint x="330" y="340" as="sourcePoint" />
            <Array as="points">
              <mxPoint x="355" y="340" />
            </Array>
            <mxPoint x="335" y="360" as="targetPoint" />
          </mxGeometry>
        </mxCell>
        <mxCell id="wPgzjCjFjOfra0olnBy9-21" value="[MotionDetected]" style="text;html=1;align=center;verticalAlign=middle;resizable=0;points=[];autosize=1;" vertex="1" parent="wPgzjCjFjOfra0olnBy9-1">
          <mxGeometry x="330" y="390" width="110" height="20" as="geometry" />
        </mxCell>
        <mxCell id="wPgzjCjFjOfra0olnBy9-22" value=":Authorities" style="shape=umlLifeline;participant=umlActor;perimeter=lifelinePerimeter;whiteSpace=wrap;html=1;container=1;collapsible=0;recursiveResize=0;verticalAlign=top;spacingTop=36;outlineConnect=0;" vertex="1" parent="wPgzjCjFjOfra0olnBy9-1">
          <mxGeometry x="540" y="160" width="20" height="520" as="geometry" />
        </mxCell>
        <mxCell id="wPgzjCjFjOfra0olnBy9-24" value="" style="html=1;points=[];perimeter=orthogonalPerimeter;" vertex="1" parent="wPgzjCjFjOfra0olnBy9-22">
          <mxGeometry x="5" y="350" width="10" height="50" as="geometry" />
        </mxCell>
        <mxCell id="wPgzjCjFjOfra0olnBy9-23" value="NotificationMessage" style="html=1;verticalAlign=bottom;endArrow=open;dashed=1;endSize=8;exitX=-0.124;exitY=0.487;exitDx=0;exitDy=0;exitPerimeter=0;" edge="1" parent="wPgzjCjFjOfra0olnBy9-1" source="wPgzjCjFjOfra0olnBy9-5" target="wPgzjCjFjOfra0olnBy9-4">
          <mxGeometry relative="1" as="geometry">
            <mxPoint x="260" y="440" as="sourcePoint" />
            <mxPoint x="180" y="440" as="targetPoint" />
          </mxGeometry>
        </mxCell>
        <mxCell id="wPgzjCjFjOfra0olnBy9-25" value="alertMesage" style="html=1;verticalAlign=bottom;endArrow=block;exitX=0.935;exitY=0.577;exitDx=0;exitDy=0;exitPerimeter=0;" edge="1" parent="wPgzjCjFjOfra0olnBy9-1" source="wPgzjCjFjOfra0olnBy9-5" target="wPgzjCjFjOfra0olnBy9-24">
          <mxGeometry width="80" relative="1" as="geometry">
            <mxPoint x="420" y="500" as="sourcePoint" />
            <mxPoint x="500" y="500" as="targetPoint" />
          </mxGeometry>
        </mxCell>
        <mxCell id="wPgzjCjFjOfra0olnBy9-28" value="" style="endArrow=none;html=1;edgeStyle=orthogonalEdgeStyle;rounded=0;dashed=1;entryX=1.002;entryY=0.677;entryDx=0;entryDy=0;entryPerimeter=0;" edge="1" parent="wPgzjCjFjOfra0olnBy9-1" target="wPgzjCjFjOfra0olnBy9-20">
          <mxGeometry relative="1" as="geometry">
            <mxPoint x="10" y="550" as="sourcePoint" />
            <mxPoint x="340" y="550" as="targetPoint" />
            <Array as="points">
              <mxPoint x="10" y="570" />
              <mxPoint x="621" y="570" />
            </Array>
          </mxGeometry>
        </mxCell>
        <mxCell id="wPgzjCjFjOfra0olnBy9-31" value="[MotionUndetected]" style="text;html=1;align=center;verticalAlign=middle;resizable=0;points=[];autosize=1;" vertex="1" parent="wPgzjCjFjOfra0olnBy9-1">
          <mxGeometry x="330" y="580" width="120" height="20" as="geometry" />
        </mxCell>
        <mxCell id="wPgzjCjFjOfra0olnBy9-33" value="setAwayModeOff" style="html=1;verticalAlign=bottom;endArrow=block;entryX=-0.2;entryY=0.128;entryDx=0;entryDy=0;entryPerimeter=0;" edge="1" parent="wPgzjCjFjOfra0olnBy9-1">
          <mxGeometry relative="1" as="geometry">
            <mxPoint x="90.00352941176465" y="620.16" as="sourcePoint" />
            <mxPoint x="323.6799999999999" y="620.16" as="targetPoint" />
          </mxGeometry>
        </mxCell>
        <mxCell id="wPgzjCjFjOfra0olnBy9-34" value="turnAutoModeOff" style="edgeStyle=orthogonalEdgeStyle;html=1;align=left;spacingLeft=2;endArrow=block;rounded=0;entryX=1;entryY=0;" edge="1" parent="wPgzjCjFjOfra0olnBy9-1">
          <mxGeometry relative="1" as="geometry">
            <mxPoint x="330.68" y="620" as="sourcePoint" />
            <Array as="points">
              <mxPoint x="355.68" y="620" />
            </Array>
            <mxPoint x="335.68" y="640" as="targetPoint" />
          </mxGeometry>
        </mxCell>
        <mxCell id="wPgzjCjFjOfra0olnBy9-35" value="ConfirmationMessage" style="html=1;verticalAlign=bottom;endArrow=open;dashed=1;endSize=8;" edge="1" parent="wPgzjCjFjOfra0olnBy9-1">
          <mxGeometry relative="1" as="geometry">
            <mxPoint x="95.68" y="660" as="targetPoint" />
            <mxPoint x="330.18" y="660" as="sourcePoint" />
            <Array as="points">
              <mxPoint x="250.68" y="660" />
            </Array>
          </mxGeometry>
        </mxCell>
        <mxCell id="wPgzjCjFjOfra0olnBy9-20" value="alt" style="shape=umlFrame;whiteSpace=wrap;html=1;width=40;height=20;" vertex="1" parent="wPgzjCjFjOfra0olnBy9-1">
          <mxGeometry x="10" y="370" width="610" height="310" as="geometry" />
        </mxCell>
      </root>
    </mxGraphModel>
  </diagram>
  <diagram id="K8nxZKp3qxvJQyrWLA04" name="updateHouseView">
    <mxGraphModel dx="321" dy="423" grid="1" gridSize="10" guides="1" tooltips="1" connect="1" arrows="1" fold="1" page="1" pageScale="1" pageWidth="1100" pageHeight="850" math="0" shadow="0">
      <root>
        <mxCell id="fhIn0v1RM9LomU6Ubs_0-0" />
        <mxCell id="fhIn0v1RM9LomU6Ubs_0-1" parent="fhIn0v1RM9LomU6Ubs_0-0" />
        <mxCell id="fhIn0v1RM9LomU6Ubs_0-2" value=":System" style="shape=umlLifeline;perimeter=lifelinePerimeter;whiteSpace=wrap;html=1;container=1;collapsible=0;recursiveResize=0;outlineConnect=0;" vertex="1" parent="fhIn0v1RM9LomU6Ubs_0-1">
          <mxGeometry x="170" y="100" width="100" height="210" as="geometry" />
        </mxCell>
        <mxCell id="fhIn0v1RM9LomU6Ubs_0-8" value="" style="html=1;points=[];perimeter=orthogonalPerimeter;" vertex="1" parent="fhIn0v1RM9LomU6Ubs_0-2">
          <mxGeometry x="45" y="70" width="10" height="140" as="geometry" />
        </mxCell>
        <mxCell id="fhIn0v1RM9LomU6Ubs_0-6" value="updateHouseView" style="edgeStyle=orthogonalEdgeStyle;html=1;align=left;spacingLeft=2;endArrow=block;rounded=0;entryX=1;entryY=0;dashed=1;" edge="1" parent="fhIn0v1RM9LomU6Ubs_0-1">
          <mxGeometry relative="1" as="geometry">
            <mxPoint x="225" y="190" as="sourcePoint" />
            <Array as="points">
              <mxPoint x="245" y="190" />
            </Array>
            <mxPoint x="225" y="210" as="targetPoint" />
          </mxGeometry>
        </mxCell>
        <mxCell id="fhIn0v1RM9LomU6Ubs_0-9" value="SimActivated" style="html=1;verticalAlign=bottom;startArrow=oval;endArrow=block;startSize=8;dashed=1;" edge="1" target="fhIn0v1RM9LomU6Ubs_0-8" parent="fhIn0v1RM9LomU6Ubs_0-1">
          <mxGeometry relative="1" as="geometry">
            <mxPoint x="140" y="170" as="sourcePoint" />
          </mxGeometry>
        </mxCell>
      </root>
    </mxGraphModel>
  </diagram>
</mxfile>
